# xmcd
#
# Track frame offsets: 
#        150
#        13676
#        22947
#        34038
#        48543
#        62276
#        77672
#        92815
#        108295
#        124313
#        141264
#        157016
#        175708
#        189569
#        202201
#        213434
#        224195
#        238714
#        257916
#        273104
#        286907
#        300454
#        316120
#        331729
#        345660
#
# Disc length: 4789 seconds
#
# Revision: 0
# Processed by: cddbd v1.5.2PL0 Copyright (c) Steve Scherf et al.
# Submitted via: ExactAudioCopy v1.0b3
#
DISCID=6a12b319
DTITLE=Edith Piaf - Greatest Hits [CD2)
DYEAR=2008
DGENRE=chanson
TTITLE0=C'est l'Amour
TTITLE1=L' Homme au Piano
TTITLE2=A Quoi Ca Sert l'Amour
TTITLE3=Les Amants de Venise
TTITLE4=C'est a Hambourg
TTITLE5=Un Etranger
TTITLE6=Je Sais Comment
TTITLE7=Hymne a l'Amour
TTITLE8=Les Croix
TTITLE9=Mon Dieu
TTITLE10=Exodus
TTITLE11=Les Trois Cloches
TTITLE12=Mea Culpa
TTITLE13=Je Me Souviens d'Une Chanson
TTITLE14=Et Pourtant
TTITLE15=Le 'Ca Ira'
TTITLE16=Les Amants de Paris
TTITLE17=Mariage
TTITLE18=Pour Moi Toute Seule
TTITLE19=Le Chevalier de Paris
TTITLE20=Monsieur et Madame
TTITLE21=Misericorde
TTITLE22=L'Entranger
TTITLE23=C'est Merveilleux
TTITLE24=Le Fanion De La Legion
EXTD=
EXTT0=
EXTT1=
EXTT2=
EXTT3=
EXTT4=
EXTT5=
EXTT6=
EXTT7=
EXTT8=
EXTT9=
EXTT10=
EXTT11=
EXTT12=
EXTT13=
EXTT14=
EXTT15=
EXTT16=
EXTT17=
EXTT18=
EXTT19=
EXTT20=
EXTT21=
EXTT22=
EXTT23=
EXTT24=
PLAYORDER=
